<svg width="22" height="22" viewBox="0 0 22 22" fill="none" xmlns="http://www.w3.org/2000/svg">
<g id="affiliation">
<path d="M1.93518 3.49988C1.93518 2.39531 2.83061 1.49988 3.93518 1.49988H18.9352C20.0398 1.49988 20.9352 2.39531 20.9352 3.49988V18.4999C20.9352 19.6044 20.0398 20.4999 18.9352 20.4999H3.93518C2.83061 20.4999 1.93518 19.6044 1.93518 18.4999V3.49988Z" stroke="#5170C1" stroke-width="2"/>
<path d="M6.93518 8.49988C6.93518 7.39531 7.83061 6.49988 8.93518 6.49988H13.9352C15.0398 6.49988 15.9352 7.39531 15.9352 8.49988V13.4999C15.9352 14.6044 15.0398 15.4999 13.9352 15.4999H8.93518C7.83061 15.4999 6.93518 14.6044 6.93518 13.4999V8.49988Z" stroke="#5170C1" stroke-width="2"/>
</g>
</svg>
