<svg width="19" height="19" viewBox="0 0 19 19" fill="none" xmlns="http://www.w3.org/2000/svg">
<g id="coverage">
<path d="M11.2 6.64286C11.2 9.48318 8.91665 11.7857 6.1 11.7857C3.28335 11.7857 1 9.48318 1 6.64286C1 3.80254 3.28335 1.5 6.1 1.5C8.91665 1.5 11.2 3.80254 11.2 6.64286Z" stroke="#5170C1" stroke-width="2"/>
<path d="M18 6.64286C18 9.48318 15.7167 11.7857 12.9 11.7857C10.0833 11.7857 7.8 9.48318 7.8 6.64286C7.8 3.80254 10.0833 1.5 12.9 1.5C15.7167 1.5 18 3.80254 18 6.64286Z" stroke="#5170C1" stroke-width="2"/>
<path d="M14.6 12.3571C14.6 15.1975 12.3167 17.5 9.5 17.5C6.68335 17.5 4.4 15.1975 4.4 12.3571C4.4 9.51682 6.68335 7.21429 9.5 7.21429C12.3167 7.21429 14.6 9.51682 14.6 12.3571Z" stroke="#5170C1" stroke-width="2"/>
</g>
</svg>
