<svg width="24" height="20" viewBox="0 0 24 20" fill="none" xmlns="http://www.w3.org/2000/svg">
<path id="creators" d="M7.97093 11.2769C7.97093 12.9219 6.65381 14.2553 5.02907 14.2553C3.40433 14.2553 2.08721 12.9219 2.08721 11.2769C2.08721 9.63198 3.40433 8.2985 5.02907 8.2985C6.65381 8.2985 7.97093 9.63198 7.97093 11.2769ZM7.97093 11.2769C8.80233 8.36323 14.9419 8.29851 16.0291 11.2769M16.0291 11.2769C16.0291 12.9219 17.3462 14.2553 18.9709 14.2553C20.5957 14.2553 21.9128 12.9219 21.9128 11.2769C21.9128 9.63198 20.5957 8.2985 18.9709 8.2985C17.3462 8.2985 16.0291 9.63198 16.0291 11.2769ZM14.9419 19.4999V17.4362C15.7733 14.5225 21.9128 14.4577 23 17.4362V19.4999M1 19.4999V17.4362C1.8314 14.5225 7.97093 14.4577 9.05814 17.4362V19.4999M15.3256 4.73735C15.3256 6.52532 13.8939 7.97476 12.1279 7.97476C10.3619 7.97476 8.93023 6.52532 8.93023 4.73735C8.93023 2.94938 10.3619 1.49994 12.1279 1.49994C13.8939 1.49994 15.3256 2.94938 15.3256 4.73735Z" stroke="#5170C1" stroke-width="2"/>
</svg>
