<svg width="20" height="23" viewBox="0 0 20 23" fill="none" xmlns="http://www.w3.org/2000/svg">
<g id="distribution">
<path id="Vector" d="M6.50961 19.4075C6.50961 18.6238 6.3426 17.8491 6.01977 17.1353C5.69693 16.4216 5.22573 15.7853 4.63774 15.2691C4.04974 14.7529 3.35853 14.3686 2.61042 14.1422C1.86231 13.9157 1.07457 13.8522 0.299988 13.9559M13.0904 19.4075C13.0904 18.6238 13.2574 17.8491 13.5802 17.1353C13.903 16.4216 14.3742 15.7853 14.9622 15.2691C15.5502 14.7529 16.2414 14.3686 16.9896 14.1422C17.7377 13.9157 18.5254 13.8522 19.3 13.9559M9.85351 2.85352V22.1464M9.85351 2.85352L5.20706 7.49996M9.85351 2.85352L14.5 7.49996" stroke="#5170C1" stroke-width="2"/>
</g>
</svg>
