<svg width="24" height="24" viewBox="0 0 24 24" fill="none" xmlns="http://www.w3.org/2000/svg">
<path d="M11.5 12C10.8078 12 10.1311 11.7947 9.55551 11.4101C8.97993 11.0256 8.53133 10.4789 8.26642 9.83939C8.00152 9.19985 7.9322 8.49612 8.06725 7.81718C8.2023 7.13825 8.53564 6.51461 9.02513 6.02513C9.51461 5.53564 10.1383 5.2023 10.8172 5.06725C11.0431 5.02231 11.2718 5 11.5 5M11.5 12L11.5 5M11.5 12C12.1922 12 12.8689 12.2053 13.4445 12.5899C14.0201 12.9744 14.4687 13.5211 14.7336 14.1606C14.9985 14.8001 15.0678 15.5039 14.9327 16.1828C14.7977 16.8618 14.4644 17.4854 13.9749 17.9749C13.4854 18.4644 12.8617 18.7977 12.1828 18.9327C11.9569 18.9777 11.7282 19 11.5 19M11.5 12L11.5 19M11.5 5C11.9574 5 12.4127 5.08968 12.8394 5.26642C13.4789 5.53133 14.0256 5.97993 14.4101 6.5555C14.7947 7.13108 15 7.80777 15 8.5M11.5 5L11.5 2.5M8 15.5C8 16.1922 8.20527 16.8689 8.58986 17.4445C8.97444 18.0201 9.52107 18.4687 10.1606 18.7336C10.5873 18.9103 11.0426 19 11.5 19M11.5 19V21.5" stroke="#5170C1" stroke-width="2"/>
</svg>
