<svg width="18" height="19" viewBox="0 0 18 19" fill="none" xmlns="http://www.w3.org/2000/svg">
<g id="history" clip-path="url(#clip0_228_437)">
<path id="Vector" d="M17.7188 9.48345C17.7276 14.2872 13.8101 18.2153 9.00633 18.2187C6.93158 18.2201 5.02583 17.4969 3.52821 16.2882C3.13879 15.9739 3.10968 15.3903 3.46356 15.0364L3.85966 14.6403C4.16232 14.3376 4.64551 14.3045 4.98083 14.5705C6.08421 15.4461 7.48058 15.9687 9 15.9687C12.5756 15.9687 15.4688 13.0749 15.4688 9.49994C15.4688 5.92437 12.575 3.03119 9 3.03119C7.28388 3.03119 5.72523 3.69807 4.56792 4.78661L6.35224 6.57093C6.70662 6.92531 6.45564 7.53119 5.95452 7.53119H0.84375C0.533074 7.53119 0.28125 7.27936 0.28125 6.96869V1.85792C0.28125 1.3568 0.887133 1.10582 1.24151 1.46016L2.97724 3.1959C4.5425 1.70003 6.66394 0.781189 9 0.781189C13.8097 0.781189 17.7099 4.6758 17.7188 9.48345ZM11.3586 12.2532L11.7039 11.8092C11.99 11.4413 11.9237 10.9112 11.5559 10.6252L10.125 9.51221V5.84369C10.125 5.37769 9.74725 4.99994 9.28125 4.99994H8.71875C8.25275 4.99994 7.875 5.37769 7.875 5.84369V10.6127L10.1745 12.4012C10.5424 12.6873 11.0725 12.621 11.3586 12.2532V12.2532Z" fill="#5170C1"/>
</g>
<defs>
<clipPath id="clip0_228_437">
<rect width="18" height="18" fill="white" transform="translate(0 0.499939)"/>
</clipPath>
</defs>
</svg>
