<svg width="20" height="21" viewBox="0 0 20 21" fill="none" xmlns="http://www.w3.org/2000/svg">
<path id="processing" d="M3.99999 10.4387V9.43867C3.44771 9.43867 2.99999 9.88639 2.99999 10.4387H3.99999ZM16 10.4387H17C17 9.88639 16.5523 9.43867 16 9.43867V10.4387ZM12 4.37315C12 5.36739 11.1457 6.24631 10 6.24631V8.24631C12.168 8.24631 14 6.55251 14 4.37315H12ZM10 6.24631C8.85428 6.24631 8 5.36739 8 4.37315H6C6 6.55251 7.83202 8.24631 10 8.24631V6.24631ZM8 4.37315C8 3.37892 8.85428 2.5 10 2.5V0.5C7.83202 0.5 6 2.19379 6 4.37315H8ZM10 2.5C11.1457 2.5 12 3.37892 12 4.37315H14C14 2.19379 12.168 0.5 10 0.5V2.5ZM6 16.6268C6 17.6211 5.14572 18.5 4 18.5V20.5C6.16798 20.5 8 18.8062 8 16.6268H6ZM4 18.5C2.85428 18.5 2 17.6211 2 16.6268H0C0 18.8062 1.83202 20.5 4 20.5V18.5ZM2 16.6268C2 15.6326 2.85428 14.7537 4 14.7537V12.7537C1.83202 12.7537 0 14.4475 0 16.6268H2ZM4 14.7537C5.14572 14.7537 6 15.6326 6 16.6268H8C8 14.4475 6.16798 12.7537 4 12.7537V14.7537ZM18 16.567C18 17.5613 17.1457 18.4402 16 18.4402V20.4402C18.168 20.4402 20 18.7464 20 16.567H18ZM16 18.4402C14.8543 18.4402 14 17.5613 14 16.567H12C12 18.7464 13.832 20.4402 16 20.4402V18.4402ZM14 16.567C14 15.5728 14.8543 14.6939 16 14.6939V12.6939C13.832 12.6939 12 14.3877 12 16.567H14ZM16 14.6939C17.1457 14.6939 18 15.5728 18 16.567H20C20 14.3877 18.168 12.6939 16 12.6939V14.6939ZM2.99999 10.4387V13.6498H4.99999V10.4387H2.99999ZM15 10.4387V13.6498H17V10.4387H15ZM3.99999 11.4387H10V9.43867H3.99999V11.4387ZM10 11.4387H16V9.43867H10V11.4387ZM9.00001 7.2275V10.4387H11V7.2275H9.00001Z" fill="#5170C1"/>
</svg>
