<svg width="26" height="18" viewBox="0 0 26 18" fill="none" xmlns="http://www.w3.org/2000/svg">
<path id="publication" d="M17.1334 12.037C17.1334 14.2856 15.3019 16.1084 13.0425 16.1084C10.7832 16.1084 8.9516 14.2856 8.9516 12.037M17.1334 12.037C17.1334 9.78842 15.3019 7.96558 13.0425 7.96558C10.7832 7.96558 8.9516 9.78842 8.9516 12.037M17.1334 12.037L22.588 14.7513M8.9516 12.037L3.49707 14.7513M23.9352 11.5782C23.7029 8.81595 22.4363 6.24326 20.3887 4.37473C18.3411 2.5062 15.6636 1.4796 12.8917 1.50031C10.1198 1.52101 7.45789 2.58748 5.43847 4.48638C3.41905 6.38529 2.19101 8.97662 2 11.742" stroke="#5170C1" stroke-width="2.2"/>
</svg>
