<svg width="21" height="21" viewBox="0 0 21 21" fill="none" xmlns="http://www.w3.org/2000/svg">
<path d="M11.8476 4.5C10.2211 8.4024 8.94639 9.78548 5 11.1412M9.93655 16.3782C11.5631 12.4758 12.5945 11.0493 16.5409 9.69357M15.747 1.58948C13.4984 1.58948 11.6755 3.42104 11.6755 5.68039C11.6755 7.93973 13.4984 9.7713 15.747 9.7713C17.9956 9.7713 19.8184 7.93973 19.8184 5.68039C19.8184 3.42104 17.9956 1.58948 15.747 1.58948ZM6.07143 10.9981C3.82284 10.9981 2 12.8296 2 15.089C2 17.3483 3.82284 19.1799 6.07143 19.1799C8.32002 19.1799 10.1429 17.3483 10.1429 15.089C10.1429 12.8296 8.32002 10.9981 6.07143 10.9981Z" stroke="#5170C1" stroke-width="2.24711" stroke-linecap="round"/>
</svg>
