<svg width="18" height="22" viewBox="0 0 18 22" fill="none" xmlns="http://www.w3.org/2000/svg">
<g id="structure">
<path d="M1.79286 16.8499C1.79286 16.1779 2.91215 15.6332 4.29286 15.6332H14.2928C15.6736 15.6332 16.7928 16.1779 16.7928 16.8499V19.2833C16.7928 19.9553 15.6736 20.5 14.2928 20.5H4.29286C2.91215 20.5 1.79286 19.9553 1.79286 19.2833V16.8499Z" stroke="#5170C1" stroke-width="2"/>
<path d="M1.79285 2.71671C1.79285 2.04474 2.91213 1.5 4.29285 1.5H14.2928C15.6735 1.5 16.7928 2.04474 16.7928 2.71671V5.15012C16.7928 5.82209 15.6735 6.36683 14.2928 6.36683H4.29285C2.91213 6.36683 1.79285 5.82209 1.79285 5.15012V2.71671Z" stroke="#5170C1" stroke-width="2"/>
<path d="M1.79286 9.83034C1.79286 9.15837 2.91215 8.61363 4.29286 8.61363H14.2928C15.6736 8.61363 16.7928 9.15837 16.7928 9.83034V12.2638C16.7928 12.9357 15.6736 13.4805 14.2928 13.4805H4.29286C2.91215 13.4805 1.79286 12.9357 1.79286 12.2638V9.83034Z" stroke="#5170C1" stroke-width="2"/>
</g>
</svg>
