<svg width="22" height="24" viewBox="0 0 22 24" fill="none" xmlns="http://www.w3.org/2000/svg">
<path id="theme" d="M6.71642 12.6416C7.8993 11.2603 7.75819 9.16453 6.40126 7.96046C5.04432 6.75639 2.9854 6.90003 1.80252 8.28128C0.619646 9.66252 0.76075 11.7583 2.11769 12.9624C3.47462 14.1665 5.53355 14.0228 6.71642 12.6416ZM6.71642 12.6416L11.4158 17.2807M16.2291 16.6811C17.586 17.8852 17.7271 19.981 16.5442 21.3622C15.3614 22.7435 13.3024 22.8871 11.9455 21.683M16.2291 16.6811C14.8721 15.477 12.8132 15.6207 11.6303 17.0019M16.2291 16.6811C15.9406 16.4251 15.6204 16.23 15.2836 16.0948M11.6303 17.0019C10.4475 18.3832 10.5886 20.479 11.9455 21.683M11.6303 17.0019C12.5617 15.9143 14.0363 15.594 15.2836 16.0948M11.6303 17.0019C11.5532 17.0919 11.4817 17.185 11.4158 17.2807M11.9455 21.683C10.677 20.5575 10.471 18.6526 11.4158 17.2807M6.92428 8.39608L14.499 5.16532M15.2836 16.0948L17.7576 8.13563M20.1975 6.99797C21.3804 5.61672 21.2392 3.52091 19.8823 2.31684C18.5254 1.11277 16.4665 1.2564 15.2836 2.63765C14.1007 4.0189 14.2418 6.11472 15.5987 7.31878C16.9557 8.52285 19.0146 8.37922 20.1975 6.99797Z" stroke="#5170C1" stroke-width="2" stroke-linecap="round"/>
</svg>
