<svg width="20" height="21" viewBox="0 0 20 21" fill="none" xmlns="http://www.w3.org/2000/svg">
<path id="variables" d="M4 7.83333C5.65685 7.83333 7 6.41557 7 4.66667C7 2.91777 5.65685 1.5 4 1.5C2.34315 1.5 1 2.91777 1 4.66667C1 6.41557 2.34315 7.83333 4 7.83333ZM4 7.83333L4 20.5M16 7.83333C17.6569 7.83333 19 6.41557 19 4.66667C19 2.91777 17.6569 1.5 16 1.5C14.3431 1.5 13 2.91777 13 4.66667C13 6.41557 14.3431 7.83333 16 7.83333ZM16 7.83333L16 20.5M1 12.4075H7M13 17.3333H19" stroke="#5170C1" stroke-width="2"/>
</svg>
