<svg width="24" height="32" viewBox="0 0 24 32" fill="none" xmlns="http://www.w3.org/2000/svg">
  <path d="M17.5996 9.4248C17.8829 9.4248 18.1165 9.51686 18.2998 9.7002C18.4829 9.88341 18.5751 10.1164 18.5752 10.3994C18.5752 10.6827 18.4831 10.9163 18.2998 11.0996L13.3994 16L18.2998 20.8994C18.4831 21.0827 18.5752 21.3164 18.5752 21.5996C18.5752 21.8829 18.4831 22.1165 18.2998 22.2998C18.1165 22.4831 17.8829 22.5752 17.5996 22.5752C17.3164 22.5752 17.0827 22.4831 16.8994 22.2998L12 17.3994L7.09961 22.2998C6.91629 22.4831 6.6827 22.5752 6.39941 22.5752C6.11636 22.5751 5.88341 22.4829 5.7002 22.2998C5.51686 22.1165 5.4248 21.8829 5.4248 21.5996C5.42485 21.3164 5.5169 21.0827 5.7002 20.8994L10.5996 16L5.7002 11.0996C5.51686 10.9163 5.4248 10.6827 5.4248 10.3994C5.42489 10.1163 5.51695 9.88344 5.7002 9.7002C5.88344 9.51695 6.11626 9.42489 6.39941 9.4248C6.68275 9.4248 6.91628 9.51686 7.09961 9.7002L12 14.5996L16.8994 9.7002C17.0827 9.5169 17.3164 9.42485 17.5996 9.4248Z" fill="#171A2B"/>
</svg>
