<svg width="20" height="20" viewBox="0 0 20 20" fill="none" xmlns="http://www.w3.org/2000/svg">
<path d="M5.29199 7.98926C5.29207 7.788 5.36879 7.6107 5.52148 7.45801C5.67419 7.30545 5.85149 7.22949 6.05273 7.22949C6.25399 7.22957 6.43129 7.30531 6.58398 7.45801L10 10.875L13.417 7.45801C13.5697 7.30534 13.7469 7.22949 13.9482 7.22949C14.1496 7.22949 14.3268 7.30534 14.4795 7.45801C14.6322 7.6107 14.7089 7.788 14.709 7.98926C14.709 8.19065 14.6302 8.37082 14.4727 8.52832L10.5215 12.4795C10.4465 12.5489 10.3648 12.601 10.2773 12.6357C10.1899 12.6704 10.096 12.6875 9.99609 12.6875C9.89614 12.6875 9.80231 12.6704 9.71484 12.6357C9.62741 12.601 9.5489 12.5489 9.47949 12.4795L5.52832 8.52832C5.37082 8.37082 5.29199 8.19065 5.29199 7.98926Z" fill="#171A2B"/>
</svg>
