<svg viewBox="0 0 523 135" xmlns="http://www.w3.org/2000/svg" xml:space="preserve" fill-rule="evenodd" clip-rule="evenodd" stroke-linejoin="round" stroke-miterlimit="2" aria-hidden="true">
  <rect width="100%" height="100%" fill="#fff"/>
  <path d="m22.403 22.925 6.703 10.03h2.586v1.407h-5.973L18.907 23.52h-2.644v9.435h3.107v1.407H10v-1.407h3.028v-21.42H10V9.922h10.516c2.316 0 4.101.571 5.355 1.713 1.264 1.142 1.896 2.781 1.896 4.878 0 1.691-.462 3.444-1.386 4.421-.914.966-2.161 1.749-3.978 1.991Zm-6.14-1.168h3.154c1.604 0 2.789-.389 3.554-1.169.764-.79 1.286-2.428 1.286-4.075 0-1.647-.522-2.86-1.286-3.639-.765-.78-1.95-1.17-3.554-1.17h-3.154v10.053Zm33.488 11.481c2.623 0 3.975-.923 5.314-2.767 1.339-1.856 2.637-4.595 2.637-8.219 0-3.634-1.298-6.373-2.637-8.218-1.339-1.856-2.691-2.783-5.314-2.783-2.635 0-3.992.927-5.331 2.783-1.338 1.845-2.636 4.584-2.636 8.218 0 3.624 1.298 6.363 2.636 8.219 1.339 1.844 2.696 2.767 5.331 2.767Zm0 1.762c-1.628 0-2.875-.274-4.246-.823a10.439 10.439 0 0 1-3.598-2.422c-1.199-1.229-2.345-2.624-2.934-4.183-.579-1.559-.868-3.332-.868-5.32 0-1.987.415-3.76.994-5.319.589-1.57 1.609-2.97 2.808-4.2a10.327 10.327 0 0 1 3.598-2.421c1.349-.549 2.597-.824 4.246-.824 3.48 0 6.039 1.17 8.181 3.508 2.142 2.339 3.465 5.424 3.465 9.256 0 1.966-.421 3.739-1.01 5.32-.589 1.57-1.357 2.965-2.556 4.183a10.531 10.531 0 0 1-3.599 2.438c-1.349.538-2.843.807-4.481.807Zm25.657-2.229h2.811c1.949 0 3.624-.423 4.523-1.279.898-.856 1.347-1.66 1.347-3.527 0-1.855-.449-3.206-1.347-4.051-.888-.856-2.563-1.285-4.523-1.285h-2.811v10.142Zm-.314-11.848h2.395c1.775 0 3.01-.346 3.821-1.037.823-.692 1.234-2.203 1.234-3.696 0-1.505-.466-2.534-1.234-3.278-.699-.677-2.033-1.198-3.821-1.198h-2.395v9.209ZM68.87 34.362v-1.407h3.085v-21.42H68.87V9.933h10.08c2.446 0 4.129.53 5.363 1.551 1.245 1.01 2.025 2.506 2.025 4.526 0 1.461-.433 2.625-1.299 3.492-.855.867-2.111 1.998-3.767 2.195 2.056.264 3.489.894 4.55 1.97 1.072 1.065 1.733 2.498 1.733 4.298 0 2.438-1.008 3.948-2.524 5.101-1.515 1.153-3.629 1.296-6.844 1.296H68.87Zm28.33 0v-1.407h2.868v-21.42h-3.084V9.922h14.954V9h1.506v5.842h-1.506v-3.043h-8.574v9.431h6.813v-2.562h1.761v7.113h-1.761v-2.88h-6.813v9.774h8.759v-3.056h1.684v4.743H97.2Zm58.704.16v-1.567h3.671V11.893h-7.236v3.05h-1.644V9h1.644v.933h17.865V9h1.761v5.913h-1.761v-3.02h-7.35v21.062h3.828v1.567h-10.778Zm36.099-.16v-1.407h2.882v-21.42h-2.882V9.922h9.061v1.613h-2.883v10.577l9.064-10.577h-2.63V9.922h7.817v1.613h-2.491l-8.013 9.433 9.895 11.987h2.013v1.407h-5.123l-10.532-12.25v10.843h2.883v1.407h-9.061Zm79.911-5.979v4.895c-1.873.949-5.443 1.642-8.02 1.642-3.099-.187-6.38-1.177-8.476-3.244-1.212-1.23-2.273-2.545-2.868-4.104-.585-1.57-1.034-3.343-1.034-5.32 0-3.821 1.264-6.502 3.44-8.841 2.176-2.349 5.3-3.743 8.861-3.743 1.32 0 2.472.135 3.966.487.809.19 1.677.565 2.509.855l.011-1.761h1.611v6.355h-1.611l.001-1.774c-2.371-2.295-5.663-2.441-7.039-2.34-2.515.183-4.557 1.622-5.917 3.417-1.331 1.856-2.115 3.733-2.115 7.345 0 3.602.863 5.18 2.194 7.046 1.331 1.57 3.612 3.591 6.27 3.74 3.834.216 5.436-.991 6.605-1.859v-2.796h1.612Zm9.522 5.979v-1.407h2.835v-21.42h-2.835V9.922h9.216v1.613h-3.085v9.664h13.588v-9.664h-2.78V9.922h8.886v1.613h-2.81v21.42h2.81v1.407h-8.886v-1.407h2.78V22.85h-13.588v10.105h3.085v1.407h-9.216ZM136.018 22.925l6.703 10.03h2.586v1.407h-5.973l-6.812-10.842h-2.644v9.435h3.107v1.407h-9.37v-1.407h3.028v-21.42h-3.028V9.922h10.516c2.317 0 4.101.571 5.355 1.713 1.264 1.142 1.896 2.781 1.896 4.878 0 1.691-.462 3.444-1.386 4.421-.914.966-2.161 1.749-3.978 1.991Zm-6.14-1.168h3.154c1.604 0 2.789-.389 3.554-1.169.765-.79 1.286-2.428 1.286-4.075 0-1.647-.521-2.86-1.286-3.639-.765-.78-1.95-1.17-3.554-1.17h-3.154v10.053Zm101.621 11.481c2.624 0 3.975-.923 5.314-2.767 1.339-1.856 2.637-4.595 2.637-8.219 0-3.634-1.298-6.373-2.637-8.218-1.339-1.856-2.69-2.783-5.314-2.783-2.634 0-3.992.927-5.331 2.783-1.338 1.845-2.636 4.584-2.636 8.218 0 3.624 1.298 6.363 2.636 8.219 1.339 1.844 2.697 2.767 5.331 2.767Zm0 1.762c-1.628 0-2.875-.274-4.246-.823a10.439 10.439 0 0 1-3.598-2.422c-1.199-1.229-2.345-2.624-2.934-4.183-.579-1.559-.868-3.332-.868-5.32 0-1.987.415-3.76.994-5.319.589-1.57 1.609-2.97 2.808-4.2a10.327 10.327 0 0 1 3.598-2.421c1.349-.549 2.597-.824 4.246-.824 3.48 0 6.039 1.17 8.181 3.508 2.142 2.339 3.465 5.424 3.465 9.256 0 1.966-.421 3.739-1.01 5.32-.589 1.57-1.357 2.965-2.556 4.183a10.531 10.531 0 0 1-3.599 2.438c-1.349.538-2.843.807-4.481.807Zm101.891-.638h-3.424V9.922h3.424v24.44Zm12.486-24.44h4.029l12.487 19.446V9.922h3.391l-.084 24.44h-3.729l-12.703-19.753v19.753h-3.391V9.922Zm38.548 24.951c-3.02-.062-6.243-1.448-8.039-2.614l1.743-2.67s1.535.994 2.654 1.402c1.119.409 2.417.782 3.726.782 2.497 0 4.246-1.411 4.293-3.447.056-2.397-1.868-3.262-4.108-4.434-4.783-2.503-5.147-3.235-5.92-4.09-1.794-1.983-1.97-4.425-.639-6.716 1.528-2.63 4.851-3.421 7.291-3.421 4.49 0 6.963 2.174 6.963 2.174l-1.337 2.637c-1.865-.94-3.224-1.609-5.535-1.679-2.452 0-4.799.923-4.799 3.284.046 2.59 3.001 3.331 5.978 5.236 2.398 1.534 5.385 2.861 5.385 7.059 0 3.91-3.381 6.473-7.656 6.497Zm15.397-24.951v3.049h7.689v21.391h3.291V12.971h7.802V9.922h-18.782Zm76.059 25.07c-5.047 0-9.31-3.125-9.31-9.125V9.922h3.424v15.979c.075 3.611 1.934 6.064 5.886 6.064s6.461-2.083 6.461-6.064V9.922h3.424v15.86c0 6.201-4.838 9.21-9.885 9.21Zm-44.924-.63h-3.423V9.922h3.423v24.44Zm9.003-24.44v3.049h7.69v21.391h3.291V12.971h7.802V9.922h-18.783Zm54.259 0v3.049h7.689v21.391h3.291V12.971H513V9.922h-18.782Z" fill="#0a4b96" fill-rule="nonzero"/>
  <path d="m52.529 22.404-.037 18.384c1.934 14.688 17.027 10.933 21.828 9.802-2.131-2.638-8.093-8.624-1.745-16.941 9.885-12.951 19.87-20.097 38.978-23.748-13.002-2.793-30.112-.066-59.618 13.391l.594-.888Z" transform="translate(278 53)" fill="url(#_Linear1)" fill-rule="nonzero"/>
  <path d="M52.232 25.881c-12.08 7.409-18.369 11.874-36.454 22.638-1.915 1.139-5.303 2.88-3.564 5.622.923 1.456 7.112-.337 9.98-2.163 12.736-8.112 23.83-14.915 30.178-19.475l-.14-6.622Z" transform="translate(278 53)" fill="url(#_Linear2)" fill-rule="nonzero"/>
  <path d="M329.342 57.211h1.885v66.98h-1.885z" fill="#0a4b96"/>
  <path d="M152.61 40.011C178.214 15.718 197.814 3.872 210.818.58c7.364-1.864 3.017 1.264 1.782 2.367-3.923 3.505-17.379 12.254-22.867 15.98-3.928 2.666-15.288 10.667-37.197 31.737l.074-10.653Z" transform="translate(278 53)" fill="url(#_Linear3)" fill-rule="nonzero"/>
  <path d="M152.192 28.453c9.909 14.271 17.032 26.983 39.584 46.976 4.75 4.21 4.306 7.568-3.674 4.185-7.431-3.151-24.97-18.61-36.12-39.129l.21-12.032Z" transform="translate(278 53)" fill="url(#_Linear4)" fill-rule="nonzero"/>
  <path d="M429.23 57.211h1.885v66.98h-1.885z" fill="#0a4b96"/>
  <path d="M330.599 92.916c13.864-13.281 39.673-29.22 52.143-29.22 10.323 0 20.723 8.893 28.898 19.806l18.218 27.543V95.396l-11.953-17.638c-8.752-9.347-18.476-16.791-35.163-16.791-16.18 0-32.089 6.857-52.143 18.153v13.796Z" fill="#0a4b96" fill-rule="nonzero"/>
  <path d="m330.599 110.106.235 10.094c9.364 5.108 13.629 5.497 19.161 5.497 13.853 0 27.198-2.544 44.384-16.457 14.434-11.685 23.992-21.47 35.91-32.166l-.111-9.461c-14.122 11.753-36.501 31.099-50.617 41.154-7.482 5.329-17.841 14.214-29.565 14.214-5.587 0-9.339-1.137-19.397-12.875Z" fill="#0a4b96" fill-rule="nonzero"/>
  <path d="M46.67 60.154c-2.189 2.349-9.269-.518-12.337-3.034-6.111-5.011-11.669-11.932-28.297-29.818-7.76-8.347-5.982-8.997-5.565-9.73 5.324-1.496 10.664 5.024 14.542 9.416 15.528 17.587 23.213 24.786 25.567 26.47 4.24 3.033 7.413 4.521 6.09 6.696Z" transform="translate(278 53)" fill="url(#_Linear5)" fill-rule="nonzero"/>
  <defs>
    <linearGradient id="_Linear1" x1="0" y1="0" x2="1" y2="0" gradientUnits="userSpaceOnUse" gradientTransform="rotate(49.132 5.447 81.446) scale(24.4692)">
      <stop offset="0" stop-color="#fff" stop-opacity="0"/>
      <stop offset=".07" stop-color="#b8d3ee"/>
      <stop offset="1" stop-color="#fff" stop-opacity="0"/>
    </linearGradient>
    <linearGradient id="_Linear2" x1="0" y1="0" x2="1" y2="0" gradientUnits="userSpaceOnUse" gradientTransform="rotate(149.92 4.586 24.697) scale(10.07656)">
      <stop offset="0" stop-color="#b8d3ee"/>
      <stop offset="1" stop-color="#fff" stop-opacity="0"/>
    </linearGradient>
    <linearGradient id="_Linear3" x1="0" y1="0" x2="1" y2="0" gradientUnits="userSpaceOnUse" gradientTransform="rotate(-20.72 146.288 -502.61) scale(29.7134)">
      <stop offset="0" stop-color="#b8d3ee"/>
      <stop offset="1" stop-color="#fff" stop-opacity="0"/>
    </linearGradient>
    <linearGradient id="_Linear4" x1="0" y1="0" x2="1" y2="0" gradientUnits="userSpaceOnUse" gradientTransform="rotate(49.889 19.628 214.863) scale(27.7698)">
      <stop offset="0" stop-color="#b8d3ee"/>
      <stop offset="1" stop-color="#fff" stop-opacity="0"/>
    </linearGradient>
    <linearGradient id="_Linear5" x1="0" y1="0" x2="1" y2="0" gradientUnits="userSpaceOnUse" gradientTransform="rotate(-139.301 17.288 15.263) scale(29.6707)">
      <stop offset="0" stop-color="#b8d3ee"/>
      <stop offset="1" stop-color="#fff" stop-opacity="0"/>
    </linearGradient>
  </defs>
</svg>
