<svg width="182" height="47" viewBox="0 0 182 47" fill="none" xmlns="http://www.w3.org/2000/svg">
<g clip-path="url(#clip0_298_20)">
<path d="M7.663 8.6198H7.1464C6.8115 8.6198 6.6005 8.462 6.2841 7.9704L4.374 5.0255C5.6494 4.8419 6.3584 4.0192 6.3584 2.7316C6.3584 2.3092 6.2724 1.9088 6.1005 1.5514C5.69821 0.7287 4.9775 0.3717 3.6845 0.3717H0V0.8615H0.997V8.6344H0V9.126H3.15721V8.6344H2.1591V5.1989H3.1943L5.1709 8.3419C5.6103 9.045 5.7548 9.126 6.542 9.126H7.663V8.6198ZM2.1591 0.9806H3.40521C4.5283 0.9806 5.1416 1.6168 5.1416 2.7589C5.1416 3.8463 4.4404 4.59 3.4345 4.59H2.1591V0.9806ZM14.3193 9.299C16.6318 9.299 18.5693 7.215 18.5693 4.7482C18.5693 2.2809 16.6318 0.213 14.3193 0.213C11.9716 0.213 10.042 2.2692 10.042 4.7594C10.042 7.2272 11.9892 9.299 14.3193 9.299ZM14.3379 0.9025C16.0166 0.9025 17.2529 2.5197 17.2529 4.7482C17.2529 6.9752 16.0166 8.6076 14.3193 8.6076C12.6025 8.6076 11.3466 6.9899 11.3466 4.7482C11.3466 2.4948 12.6025 0.9025 14.3379 0.9025ZM25.9921 9.126C27.3535 9.126 28.3505 8.1447 28.3505 6.8434C28.3505 5.9415 27.8711 5.172 27.0459 4.7887C26.7197 4.628 26.5283 4.5748 25.9814 4.5094C27.0459 4.417 27.9287 3.5412 27.9287 2.547C27.9287 1.338 26.9521 0.3717 25.7412 0.3717H21.7129V0.8615H22.7119V8.6344H21.7129V9.126H25.9921ZM23.8711 4.88H25.3584C26.3857 4.88 27.1416 5.6749 27.1416 6.7794C27.1416 7.8649 26.4716 8.5294 25.3584 8.5294H23.8711V4.88ZM23.8711 0.9806H25.3388C26.125 0.9806 26.6923 1.672 26.6923 2.6002C26.6923 3.5797 26.0879 4.2858 25.2236 4.2858H23.8711V0.9806ZM37.7588 7.3615H37.1543V8.5294H33.8838V4.9733H36.3974V5.9938L37.0009 5.9806V3.3698L36.3974 3.381V4.376H33.8838V0.9806H37.0302V2.1076H37.624V0H37.0107V0.3717H31.7255V0.8615H32.7138V8.6344H31.7255V9.126H37.7588V7.3615ZM48.6826 8.6198H48.165C47.8379 8.6198 47.6181 8.462 47.3125 7.9704L45.3935 5.0255C46.6689 4.8419 47.3877 4.0192 47.3877 2.7316C47.3877 2.3092 47.292 1.9088 47.1181 1.5514C46.7255 0.7287 45.9892 0.3717 44.7129 0.3717H41.0205V0.8615H42.0068V8.6344H41.0205V9.126H44.1748V8.6344H43.1875V5.1989H44.2129L46.1982 8.3419C46.6298 9.045 46.7744 9.126 47.5517 9.126H48.6826V8.6198ZM43.1875 0.9806H44.4248C45.5361 0.9806 46.1709 1.6168 46.1709 2.7589C46.1709 3.8463 45.4599 4.59 44.4541 4.59H43.1875V0.9806ZM56.288 8.6344H54.9541V1.0358H57.6123V2.0954H58.2451V0H57.6123V0.3717H51.1474V0H50.5048V2.0954H51.1474V1.0358H53.7959V8.6344H52.4716V9.126H56.288V8.6344ZM73.5517 8.6344H72.8505L69.2548 4.3639L72.1884 0.8615H73.0537V0.3717H70.2998V0.8615H71.288L68.0283 4.7067L71.7685 9.126H73.5517V8.6344ZM68.9004 8.6344H67.9033V0.8615H68.9004V0.3717H65.7353V0.8615L66.7334 0.875V8.6198H65.7353V9.126H68.9004V8.6344ZM80.0537 9.299C82.3564 9.299 84.2939 7.215 84.2939 4.7482C84.2939 2.2809 82.3564 0.213 80.0537 0.213C77.7041 0.213 75.7666 2.2692 75.7666 4.7594C75.7666 7.2272 77.7129 9.299 80.0537 9.299ZM80.0625 0.9025C81.7509 0.9025 82.9892 2.5197 82.9892 4.7482C82.9892 6.9752 81.7509 8.6076 80.0537 8.6076C78.3271 8.6076 77.081 6.9899 77.081 4.7482C77.081 2.4948 78.3271 0.9025 80.0625 0.9025ZM94.7392 6.9752H94.0947V7.9435C93.2509 8.4352 92.7041 8.6076 92.042 8.6076C90.0673 8.6076 88.5322 6.8966 88.5322 4.6955C88.5322 2.4528 89.8838 0.8873 91.8408 0.8873C92.6943 0.8873 93.29 1.1129 94.0947 1.71V2.3615H94.7197V0.1056H94.0947V0.7038C93.3564 0.3576 92.665 0.213 91.8037 0.213C89.2138 0.213 87.208 2.2008 87.208 4.7746C87.208 7.3873 89.2138 9.299 91.9463 9.299C92.8857 9.299 93.624 9.1515 94.7392 8.7409V6.9752ZM107.177 8.6344H106.169V0.8615H107.177V0.3717H104.021V0.8615H105.011V4.3913H100.042V0.8615H101.038V0.3717H97.8838V0.8615H98.8701V8.6344H97.8838V9.126H101.038V8.6344H100.042V4.9855H105.011V8.6344H104.021V9.126H107.177V8.6344ZM116.011 9.126V0.3717H117.093V9.126H116.011ZM128.755 9.2047V0.3717H127.661V7.7858C127.642 7.7326 127.624 7.6774 127.614 7.6544C127.518 7.4005 127.509 7.3873 127.45 7.256C127.413 7.174 127.374 7.0983 127.337 7.042L123.001 0.3717H121.583V9.126H122.665V1.5397C122.722 1.71 122.741 1.7775 122.8 1.8707C122.809 1.924 122.858 1.9762 122.904 2.0675C122.974 2.2008 123.038 2.3092 123.077 2.3742L127.499 9.2047H128.755ZM138.154 0.9547C137.665 0.6637 137.454 0.5573 137.091 0.4396C136.638 0.2902 136.12 0.2262 135.621 0.2262C133.886 0.2262 132.737 1.1544 132.737 2.547C132.737 3.4479 133.292 4.1393 134.606 4.8419C135.43 5.292 135.911 5.544 136.063 5.6227C136.409 5.8219 136.659 6.0739 136.802 6.34C136.897 6.4977 136.938 6.711 136.938 6.963C136.938 7.798 136.312 8.2887 135.278 8.2887C134.827 8.2887 134.404 8.21 134.021 8.0636C133.714 7.9435 133.503 7.8258 133.013 7.4928L132.448 8.3566C133.022 8.7409 133.255 8.8742 133.579 9.003C134.04 9.1935 134.606 9.299 135.2 9.299C136.966 9.299 138.077 8.3566 138.077 6.8546C138.077 6.2204 137.829 5.6227 137.396 5.2653C137.091 4.9855 136.62 4.6955 136.024 4.376C134.25 3.4342 133.867 3.1027 133.867 2.4528C133.867 1.71 134.538 1.2213 135.526 1.2213C135.882 1.2213 136.409 1.2999 136.735 1.4049C137.013 1.4987 137.204 1.5919 137.654 1.8556L138.154 0.9547ZM147.495 1.2848V0.3717H140.571V1.2848H143.487V9.126H144.569V1.2848H147.495ZM151.745 9.126V0.3717H150.65V9.126H151.745ZM161.804 1.2848V0.3717H154.882V1.2848H157.806V9.126H158.89V1.2848H161.804ZM171.577 6.127V0.3717H170.493V5.795C170.493 6.8844 170.407 7.1886 169.985 7.6544C169.554 8.1447 168.911 8.4088 168.153 8.4088C167.396 8.4088 166.763 8.1447 166.331 7.6544C165.899 7.1886 165.823 6.8844 165.823 5.795V0.3717H164.739V6.127C164.739 7.2672 165.026 7.9704 165.757 8.5675C166.407 9.0973 167.233 9.377 168.173 9.377C169.112 9.377 169.929 9.0973 170.571 8.5675C171.3 7.9704 171.577 7.294 171.577 6.127ZM181.419 1.2848V0.3717H174.492V1.2848H177.409V9.126H178.503V1.2848H181.419Z" fill="#005EB8"/>
<path d="M158.063 39.6252C160.47 42.1029 162.723 43.7932 164.053 44.3582C166.857 45.5491 167.014 44.367 165.345 42.8861C163.347 41.1118 161.693 39.5005 160.282 38.0024" fill="url(#paint0_linear_298_20)"/>
<path d="M158.063 39.6253C156.287 37.7983 154.427 35.5431 152.79 32.9953C152.446 33.3219 152.094 33.6574 151.734 34.0036V26.7868C152.228 27.5063 152.707 28.2168 153.187 28.9265C157.148 25.2897 160.673 22.5351 163.743 20.5356L165.192 22.3729C164.939 22.5439 164.709 22.7002 164.507 22.8376C163.331 23.6365 160.378 25.9679 154.735 31.1755C156.225 33.2899 157.912 35.4868 160.282 38.0025" fill="#CCDFF1"/>
<path d="M165.192 22.3729C167.348 20.9129 171.118 18.3814 172.66 17.3815C173.041 17.1343 174.001 16.3447 173.203 16.3447C172.978 16.3447 172.606 16.4038 172.034 16.5484C169.811 17.1119 167.04 18.3885 163.743 20.5356" fill="url(#paint1_linear_298_20)"/>
<path d="M104.579 27.5311C104.145 27.0462 103.69 26.5347 103.215 25.9951C101.987 24.603 100.345 22.6045 98.6643 22.6045C98.4782 22.6045 98.1991 22.6095 98.1051 22.6812C97.8694 22.861 97.3344 23.1684 100.06 26.1046C101.014 27.1332 101.865 28.0584 102.63 28.8945" fill="url(#paint2_linear_298_20)"/>
<path d="M105.682 32.2485C105.682 32.2485 104.277 33.0975 103.483 33.5708C102.81 33.9717 101.62 34.5844 102.231 35.5492C102.555 36.0612 104.73 35.4303 105.737 34.7873C106.225 34.4759 106.705 34.1711 107.178 33.8711" fill="url(#paint3_radial_298_20)"/>
<path d="M102.63 28.8948C103.839 30.2172 104.833 31.3165 105.683 32.2485L107.178 33.8711C108.274 35.0388 109.121 35.8748 110.002 36.5972C111.08 37.483 113.567 38.491 114.336 37.6643C114.801 36.8999 113.686 36.3751 112.196 35.3088C111.765 34.9996 110.825 34.1625 109.253 32.5581C112.004 30.8188 114.358 29.3293 115.978 28.1922V25.7983C113.023 27.6195 111.022 28.9576 107.744 30.9856C106.838 30.0238 105.788 28.8811 104.579 27.5314" fill="#CCDFF1"/>
<path d="M151.072 17.8164V21.7543C149.88 22.75 148.538 23.8837 147.117 25.0817L147.093 25.046C144.018 21.7575 140.601 19.0621 134.739 19.0621C129.114 19.0621 123.582 21.4996 116.64 25.4021V17.8164H115.978V41.385H116.64V40.0547C119.865 41.7883 122.473 42.1833 124.39 42.1833C129.257 42.1833 132.79 41.0192 138.827 36.1237C141.781 33.7288 144.154 31.5608 146.448 29.4238L151.072 36.4249V41.385H151.734V17.8164H151.072ZM133.621 35.9575C130.992 37.833 127.353 40.9593 123.234 40.9593C121.313 40.9593 120.008 40.5736 116.64 36.6845V31.0871C119.669 26.4064 130.168 20.0985 134.739 20.0985C138.344 20.0985 141.975 23.188 144.839 26.9983C140.907 30.2967 136.703 33.7583 133.621 35.9575ZM148.659 27.3604C149.446 26.6274 150.245 25.8902 151.072 25.1419V30.9256L148.659 27.3604Z" fill="#005EB8"/>
<path d="M116.638 31.0873V32.0042C117.898 35.0982 120.841 34.9239 123.344 33.8127C123.651 33.6767 123.741 33.2841 123.521 33.0308C119.783 28.7184 131.332 20.7679 138.244 21.0035C137.208 20.4874 136.153 20.1688 135.097 20.1093C134.977 20.1037 134.857 20.0986 134.737 20.0986C130.167 20.0986 119.667 26.4065 116.638 31.0873Z" fill="url(#paint4_radial_298_20)"/>
</g>
<defs>
<linearGradient id="paint0_linear_298_20" x1="165.996" y1="44.6796" x2="160.074" y2="39.6965" gradientUnits="userSpaceOnUse">
<stop stop-color="white"/>
<stop offset="0.34672" stop-color="#EFF5FB"/>
<stop offset="0.92712" stop-color="#CCDFF1"/>
</linearGradient>
<linearGradient id="paint1_linear_298_20" x1="172.96" y1="16.4121" x2="165.377" y2="20.8896" gradientUnits="userSpaceOnUse">
<stop stop-color="white"/>
<stop offset="0.34672" stop-color="#EFF5FB"/>
<stop offset="0.92712" stop-color="#CCDFF1"/>
</linearGradient>
<linearGradient id="paint2_linear_298_20" x1="98.4379" y1="22.0844" x2="103.472" y2="28.2915" gradientUnits="userSpaceOnUse">
<stop stop-color="white"/>
<stop offset="0.34672" stop-color="#EFF5FB"/>
<stop offset="0.92712" stop-color="#CCDFF1"/>
</linearGradient>
<radialGradient id="paint3_radial_298_20" cx="0" cy="0" r="1" gradientUnits="userSpaceOnUse" gradientTransform="translate(102.195 35.5469) rotate(-35.0533) scale(4.41429 6.0977)">
<stop stop-color="white"/>
<stop offset="0.27283" stop-color="#F6FAFD"/>
<stop offset="0.707" stop-color="#DFEBF6"/>
<stop offset="1" stop-color="#CCDFF1"/>
</radialGradient>
<radialGradient id="paint4_radial_298_20" cx="0" cy="0" r="1" gradientUnits="userSpaceOnUse" gradientTransform="translate(123.115 33.5132) rotate(-120.76) scale(5.49618 7.18932)">
<stop offset="0.04748" stop-color="white"/>
<stop offset="0.37067" stop-color="#F1F6FB"/>
<stop offset="0.97513" stop-color="#CEE0F1"/>
<stop offset="1" stop-color="#CCDFF1"/>
</radialGradient>
<clipPath id="clip0_298_20">
<rect width="181.419" height="46.4933" fill="white"/>
</clipPath>
</defs>
</svg>
