<svg width="22" height="24" viewBox="0 0 22 24" xmlns="http://www.w3.org/2000/svg">
  <!-- Background Icon -->
  <path d="M0 0H22V24L10.5417 19.8621L0 24V0Z" fill="#32008C"/>

  <!-- Foreground Icon (white icon) -->
  <g transform="translate(1, 2)">
    <mask id="mask0" maskUnits="userSpaceOnUse" x="1" y="7" width="18" height="7">
      <path d="M18.7002 7.5H1.7002V13.5H18.7002V7.5Z" fill="white"/>
      <path d="M7.7002 10.5C7.7002 11.0523 7.25248 11.5 6.7002 11.5C6.14791 11.5 5.7002 11.0523 5.7002 10.5C5.7002 9.94772 6.14791 9.5 6.7002 9.5C7.25248 9.5 7.7002 9.94772 7.7002 10.5Z" fill="black"/>
    </mask>
    <g mask="url(#mask0)">
      <path d="M7.7002 9.5H6.7002V11.5H7.7002V9.5ZM4.7002 11.5H5.7002V9.5H4.7002V11.5ZM7.7002 10.5V11.5H18.7002V10.5V9.5H7.7002V10.5ZM4.7002 10.5V9.5H1.7002V10.5V11.5H4.7002V10.5ZM7.7002 10.5H5.7002C5.7002 9.94772 6.14791 9.5 6.7002 9.5V11.5V13.5C8.35705 13.5 9.7002 12.1569 9.7002 10.5H7.7002ZM6.7002 11.5V9.5C7.25248 9.5 7.7002 9.94772 7.7002 10.5H5.7002H3.7002C3.7002 12.1569 5.04334 13.5 6.7002 13.5V11.5ZM5.7002 10.5H7.7002C7.7002 11.0523 7.25248 11.5 6.7002 11.5V9.5V7.5C5.04334 7.5 3.7002 8.84315 3.7002 10.5H5.7002ZM6.7002 9.5V11.5C6.14791 11.5 5.7002 11.0523 5.7002 10.5H7.7002H9.7002C9.7002 8.84315 8.35705 7.5 6.7002 7.5V9.5Z" fill="white"/>
    </g>
  </g>
</svg>
