<svg width="20" height="20" viewBox="0 0 20 20" fill="none" xmlns="http://www.w3.org/2000/svg">
<path d="M5.29199 12.0107C5.29207 12.212 5.36879 12.3893 5.52148 12.542C5.67419 12.6946 5.85149 12.7705 6.05273 12.7705C6.25399 12.7704 6.43129 12.6947 6.58398 12.542L10 9.125L13.417 12.542C13.5697 12.6947 13.7469 12.7705 13.9482 12.7705C14.1496 12.7705 14.3268 12.6947 14.4795 12.542C14.6322 12.3893 14.7089 12.212 14.709 12.0107C14.709 11.8094 14.6302 11.6292 14.4727 11.4717L10.5215 7.52051C10.4465 7.45106 10.3648 7.39898 10.2773 7.36426C10.1899 7.32958 10.096 7.3125 9.99609 7.3125C9.89614 7.31251 9.80231 7.32956 9.71484 7.36426C9.62741 7.39895 9.5489 7.45114 9.47949 7.52051L5.52832 11.4717C5.37082 11.6292 5.29199 11.8094 5.29199 12.0107Z" fill="#171A2B"/>
</svg>
