<svg width="118" height="114" viewBox="0 0 118 114" fill="none" xmlns="http://www.w3.org/2000/svg">
<path d="M450.331 163.793L434.551 144.916L425.545 134.108L424.824 133.243L423.167 135.405C416.424 143.395 408.532 150.339 399.75 156.012C388.349 164.145 375.192 169.476 361.345 171.575C341.232 174.344 320.783 169.989 303.543 159.263C286.304 148.538 273.36 132.119 266.956 112.852L266.236 110.402L263.858 109.898C255.853 108.244 248.364 104.685 242.026 99.5222C239.576 97.5047 234.893 92.8213 232.731 90.0832C227.831 83.8867 224.085 77.6181 214.862 60.5415C209.609 49.8968 203.487 39.7029 196.56 30.0632C193.067 25.3782 188.636 21.4722 183.55 18.5941C178.464 15.7161 172.834 13.929 167.019 13.3469C164.137 12.9146 154.986 12.9866 151.816 13.4189C146.195 14.2836 141.728 15.5805 137.477 17.7421C125.949 23.5784 119.103 34.6025 116.365 51.3908C115.933 53.9847 115.933 55.0655 115.789 94.9828L115.573 154.282V172.584H102.603L102.531 114.149C102.531 49.8056 102.531 54.9935 101.234 48.3646C99.6011 38.6352 94.8763 29.6911 87.7605 22.8579C81.9962 17.8142 75.0792 14.932 65.8564 13.491C62.5419 12.9146 52.6707 12.9146 49.2842 13.491C39.1968 14.932 31.5592 18.5347 25.7229 24.5871C18.345 33.0051 14.0284 43.6695 13.4739 54.8494C13.2577 56.3625 13.1857 75.7447 13.1857 114.869V172.584H0L0.0720529 113.645C0.144106 59.4607 0.144106 54.417 0.504371 52.0393C1.6291 39.8113 6.22942 28.1605 13.7621 18.4626C18.2146 13.1606 23.6969 8.81753 29.8771 5.69647C36.0573 2.57541 42.8067 0.741321 49.7165 0.305292C54.9926 -0.101764 60.2921 -0.101764 65.5682 0.305292C74.8277 0.860298 83.7621 3.92251 91.4153 9.16424C99.0684 14.406 105.152 21.6299 109.016 30.0632L110.241 27.9016C115.358 17.6152 123.927 9.45414 134.451 4.84463C140.13 2.39779 146.161 0.865711 152.32 0.305292C155.706 -0.054973 163.632 -0.127026 166.947 0.305292C175.352 0.966641 183.493 3.55253 190.74 7.86296C197.986 12.1734 204.144 18.0929 208.737 25.1636C217.128 37.6336 224.71 50.6299 231.434 64.0721C234.82 70.701 236.478 73.439 238.783 76.7534C242.956 82.8299 248.266 88.0414 254.419 92.1007C257.445 93.9741 262.921 96.4239 263.209 96.0636C263.353 95.9916 263.209 94.7667 263.137 93.3256C261.979 78.7272 264.548 64.0739 270.602 50.7398C276.656 37.4057 285.998 25.8278 297.752 17.092C309.505 8.35626 323.285 2.74883 337.798 0.795672C352.311 -1.15749 367.083 0.607607 380.728 5.92542C380.872 5.92542 375.9 17.3098 375.54 17.7421L372.658 16.8775C365.619 14.3975 358.216 13.107 350.754 13.0587C340.076 12.801 329.472 14.8851 319.686 19.1645C309.9 23.444 301.171 29.8149 294.111 37.8294C287.051 45.8439 281.832 55.3074 278.821 65.5548C275.81 75.8023 275.081 86.5848 276.683 97.1444C276.899 97.7208 276.971 97.7208 281.006 97.1444C284.681 96.6401 286.987 96.0636 317.537 87.7055L347.223 79.6356C347.367 79.8517 350.61 91.7405 350.465 91.9566C350.465 92.1007 348.376 92.7492 345.926 93.3977C334.758 96.4239 301.037 105.647 294.264 107.592C289.653 109.039 284.929 110.1 280.142 110.762L281.078 113.14C285.004 122.826 290.949 131.563 298.519 138.769C306.088 145.974 315.108 151.483 324.975 154.926C334.842 158.37 345.33 159.67 355.739 158.738C366.149 157.807 376.24 154.667 385.339 149.527C394.706 144.339 402.992 137.494 412.071 127.623C415.745 123.66 416.106 123.156 415.745 122.579C415.529 122.147 399.173 102.548 388.365 89.8671L385.267 86.0483H402.92L413.728 98.8737C419.564 106.007 424.536 111.843 424.68 111.915C424.824 112.059 428.571 107.736 435.848 99.0899L446.728 86.1203H464.381L463.372 87.2732C456.96 94.7667 433.687 122.723 433.687 122.867C433.687 123.011 463.949 159.182 474.973 172.224L475.549 172.8H457.824L450.331 163.793Z" fill="#E0F4FC"/>
<path d="M450.331 163.793L434.551 144.916L425.545 134.108L424.824 133.243L423.167 135.405C416.424 143.395 408.532 150.339 399.75 156.012C388.349 164.145 375.192 169.476 361.345 171.575C341.232 174.344 320.783 169.989 303.543 159.263C286.304 148.538 273.36 132.119 266.956 112.852L266.236 110.402L263.858 109.898C255.853 108.244 248.364 104.685 242.026 99.5222C239.576 97.5047 234.893 92.8213 232.731 90.0832C227.831 83.8867 224.085 77.6181 214.862 60.5415C209.609 49.8968 203.487 39.7029 196.56 30.0632C193.067 25.3782 188.636 21.4722 183.55 18.5941C178.464 15.7161 172.834 13.929 167.019 13.3469C164.137 12.9146 154.986 12.9866 151.816 13.4189C146.195 14.2836 141.728 15.5805 137.477 17.7421C125.949 23.5784 119.103 34.6025 116.365 51.3908C115.933 53.9847 115.933 55.0655 115.789 94.9828L115.573 154.282V172.584H102.603L102.531 114.149C102.531 49.8056 102.531 54.9935 101.234 48.3646C99.6011 38.6352 94.8763 29.6911 87.7605 22.8579C81.9962 17.8142 75.0792 14.932 65.8564 13.491C62.5419 12.9146 52.6707 12.9146 49.2842 13.491C39.1968 14.932 31.5592 18.5347 25.7229 24.5871C18.345 33.0051 14.0284 43.6695 13.4739 54.8494C13.2577 56.3625 13.1857 75.7447 13.1857 114.869V172.584H0L0.0720529 113.645C0.144106 59.4607 0.144106 54.417 0.504371 52.0393C1.6291 39.8113 6.22942 28.1605 13.7621 18.4626C18.2146 13.1606 23.6969 8.81753 29.8771 5.69647C36.0573 2.57541 42.8067 0.741321 49.7165 0.305292C54.9926 -0.101764 60.2921 -0.101764 65.5682 0.305292C74.8277 0.860298 83.7621 3.92251 91.4153 9.16424C99.0684 14.406 105.152 21.6299 109.016 30.0632L110.241 27.9016C115.358 17.6152 123.927 9.45414 134.451 4.84463C140.13 2.39779 146.161 0.865711 152.32 0.305292C155.706 -0.054973 163.632 -0.127026 166.947 0.305292C175.352 0.966641 183.493 3.55253 190.74 7.86296C197.986 12.1734 204.144 18.0929 208.737 25.1636C217.128 37.6336 224.71 50.6299 231.434 64.0721C234.82 70.701 236.478 73.439 238.783 76.7534C242.956 82.8299 248.266 88.0414 254.419 92.1007C257.445 93.9741 262.921 96.4239 263.209 96.0636C263.353 95.9916 263.209 94.7667 263.137 93.3256C261.979 78.7272 264.548 64.0739 270.602 50.7398C276.656 37.4057 285.998 25.8278 297.752 17.092C309.505 8.35626 323.285 2.74883 337.798 0.795672C352.311 -1.15749 367.083 0.607607 380.728 5.92542C380.872 5.92542 375.9 17.3098 375.54 17.7421L372.658 16.8775C365.619 14.3975 358.216 13.107 350.754 13.0587C340.076 12.801 329.472 14.8851 319.686 19.1645C309.9 23.444 301.171 29.8149 294.111 37.8294C287.051 45.8439 281.832 55.3074 278.821 65.5548C275.81 75.8023 275.081 86.5848 276.683 97.1444C276.899 97.7208 276.971 97.7208 281.006 97.1444C284.681 96.6401 286.987 96.0636 317.537 87.7055L347.223 79.6356C347.367 79.8517 350.61 91.7405 350.465 91.9566C350.465 92.1007 348.376 92.7492 345.926 93.3977C334.758 96.4239 301.037 105.647 294.264 107.592C289.653 109.039 284.929 110.1 280.142 110.762L281.078 113.14C285.004 122.826 290.949 131.563 298.519 138.769C306.088 145.974 315.108 151.483 324.975 154.926C334.842 158.37 345.33 159.67 355.739 158.738C366.149 157.807 376.24 154.667 385.339 149.527C394.706 144.339 402.992 137.494 412.071 127.623C415.745 123.66 416.106 123.156 415.745 122.579C415.529 122.147 399.173 102.548 388.365 89.8671L385.267 86.0483H402.92L413.728 98.8737C419.564 106.007 424.536 111.843 424.68 111.915C424.824 112.059 428.571 107.736 435.848 99.0899L446.728 86.1203H464.381L463.372 87.2732C456.96 94.7667 433.687 122.723 433.687 122.867C433.687 123.011 463.949 159.182 474.973 172.224L475.549 172.8H457.824L450.331 163.793Z" fill="url(#paint0_linear_1143_1893)"/>
<defs>
<linearGradient id="paint0_linear_1143_1893" x1="464.458" y1="168.658" x2="376.533" y2="-23.6718" gradientUnits="userSpaceOnUse">
<stop stop-color="white" stop-opacity="0.53"/>
<stop offset="1" stop-color="white" stop-opacity="0"/>
</linearGradient>
</defs>
</svg>
