<svg width="216" height="156" viewBox="0 0 216 156" fill="none" xmlns="http://www.w3.org/2000/svg">
<path d="M89.9883 7.01465C99.1529 6.30758 108.359 6.3076 117.523 7.01465L117.579 7.01953L117.635 7.02246C133.128 7.95112 148.077 13.0751 160.883 21.8457C173.688 30.6163 183.868 42.7038 190.333 56.8145L195.617 68.3467L201.871 57.3105L204.075 53.4199L204.162 53.2676L204.24 53.1113C212.772 35.9617 227.056 22.3541 244.6 14.666C254.187 10.5382 264.368 7.95379 274.764 7.00781L274.861 6.99805C280.588 6.38879 294.326 6.28319 299.665 6.97949L299.83 7.00098L299.995 7.01465C314.134 8.12707 327.828 12.4762 340.017 19.7266C352.205 26.9769 362.563 36.934 370.289 48.8271L370.317 48.8711L370.347 48.915C385.295 71.1306 398.802 94.2839 410.781 118.231L410.807 118.28C416.987 130.377 420.117 135.579 424.486 141.859V141.858C432.468 153.472 442.62 163.434 454.383 171.194L454.461 171.246L454.541 171.295C457.584 173.179 461.683 175.255 465.055 176.771C466.741 177.529 468.389 178.211 469.729 178.675C470.363 178.895 471.145 179.143 471.916 179.295C472.267 179.364 472.937 179.48 473.732 179.461C474.133 179.451 474.822 179.403 475.625 179.153C476.226 178.967 477.141 178.587 478.024 177.816C478.879 177.079 479.354 176.282 479.584 175.837C479.945 175.136 480.105 174.518 480.178 174.194C480.325 173.537 480.354 172.965 480.364 172.702C480.387 172.109 480.358 171.477 480.333 171.021C480.255 169.593 480.203 169.24 480.124 167.662L480.119 167.567L480.111 167.474L480.022 166.293C478.253 141.502 482.708 116.655 492.988 94.0127C503.432 71.0115 519.547 51.0399 539.821 35.9707C560.096 20.9015 583.866 11.2286 608.901 7.85938C631.755 4.78379 654.98 7.05337 676.759 14.4502C676.221 15.6989 675.636 17.0486 675.041 18.4082C674.169 20.3985 673.284 22.394 672.51 24.1143C659.289 19.5092 645.4 17.1111 631.398 17.0205C611.271 16.5514 591.284 20.4876 572.837 28.5547C554.355 36.6371 537.867 48.6699 524.533 63.8066C511.199 78.9433 501.343 96.817 495.656 116.171C489.97 135.525 488.591 155.889 491.618 175.833L491.72 176.503L491.958 177.137C491.966 177.158 492.6 179.268 494.603 180.708C496.53 182.094 498.591 182.123 499.343 182.123C500.927 182.123 503.42 181.752 506.729 181.279L506.728 181.278C513.869 180.296 518.689 179.059 573.268 164.127L573.269 164.128L620.536 151.277C620.951 152.785 621.405 154.446 621.851 156.11C622.329 157.896 622.795 159.67 623.202 161.248C622.508 161.442 621.771 161.645 621.008 161.847L620.971 161.856C600.885 167.299 540.134 183.914 527.885 187.433L527.809 187.455L527.733 187.479C519.777 189.976 511.626 191.806 503.366 192.949L495.2 194.079L498.222 201.749L499.908 206.029L499.919 206.059L499.932 206.088C507.343 224.377 518.57 240.875 532.863 254.48C547.156 268.086 564.187 278.488 582.818 284.99C601.45 291.493 621.254 293.947 640.909 292.188C660.564 290.43 679.617 284.5 696.799 274.794C714.398 265.039 729.834 252.232 746.5 234.111L746.499 234.11C749.677 230.683 751.814 228.344 753.003 226.71C753.556 225.95 754.482 224.593 754.854 222.847C755.368 220.437 754.636 218.477 753.841 217.205H753.839C753.715 217.005 753.625 216.877 753.62 216.87C753.54 216.755 753.464 216.651 753.409 216.578C753.296 216.427 753.163 216.257 753.03 216.089C752.759 215.745 752.39 215.286 751.943 214.736C751.046 213.631 749.774 212.083 748.211 210.192C745.081 206.406 740.748 201.2 735.824 195.311C727.042 184.807 716.36 172.107 707.24 161.372H722.24L739.751 182.151C745.002 188.568 749.862 194.402 753.452 198.657C755.252 200.791 756.742 202.539 757.804 203.769C758.332 204.38 758.771 204.883 759.097 205.248C759.255 205.425 759.416 205.603 759.561 205.756C759.627 205.826 759.737 205.941 759.863 206.063C759.903 206.102 759.972 206.163 760.057 206.239C760.092 206.271 760.126 206.304 760.161 206.335C760.172 206.345 760.183 206.355 760.194 206.365C760.199 206.369 760.243 206.408 760.32 206.471C763.222 208.888 766.521 207.602 766.693 207.539C767.506 207.242 768.078 206.846 768.254 206.724C768.708 206.408 769.071 206.075 769.241 205.917C769.651 205.536 770.115 205.054 770.574 204.562C771.528 203.539 772.866 202.034 774.554 200.094C777.946 196.193 782.936 190.322 789.488 182.537L789.495 182.529L807.136 161.501H821.84C815.191 169.397 806.265 180.069 798.043 189.936C792.082 197.088 786.479 203.831 782.365 208.804C780.309 211.289 778.62 213.34 777.44 214.78C776.853 215.498 776.38 216.078 776.05 216.49C775.889 216.691 775.739 216.879 775.621 217.032C775.568 217.101 775.482 217.213 775.395 217.336C775.359 217.386 775.261 217.524 775.15 217.7C775.102 217.777 774.977 217.977 774.843 218.244C774.774 218.385 774.617 218.745 774.533 218.966C774.428 219.29 774.246 220.17 774.175 220.873L774.151 221.161L774.184 221.502C774.281 222.327 774.521 223.317 774.646 223.647C774.737 223.855 774.899 224.186 774.968 224.313C775.096 224.545 775.212 224.72 775.253 224.781C775.351 224.928 775.438 225.045 775.472 225.09C775.554 225.2 775.638 225.308 775.7 225.387C775.835 225.557 776.013 225.78 776.22 226.034C776.64 226.551 777.248 227.29 778.015 228.219C779.551 230.08 781.764 232.745 784.474 236C789.895 242.513 797.328 251.414 805.379 261.037C817.763 275.841 831.621 292.368 841.878 304.556H827.124L815.58 290.681L815.576 290.675L815.571 290.669L787.168 256.689L770.962 237.242L769.665 235.686L764.472 229.455L759.537 235.892L756.651 239.654C744.948 253.5 731.261 265.538 716.031 275.374L715.905 275.455L715.783 275.542C696.105 289.579 673.399 298.785 649.502 302.415C614.808 307.183 579.539 299.668 549.804 281.168C520.082 262.677 497.762 234.377 486.702 201.168L485.445 196.895L484.354 193.183L480.569 192.38L476.29 191.473L476.273 191.469L476.256 191.466L475.004 191.196C462.094 188.325 450.025 182.483 439.76 174.126C435.668 170.754 427.58 162.66 424.006 158.132L424.003 158.128L423.218 157.128C415.172 146.792 408.572 135.728 392.512 105.994C382.91 86.5543 371.728 67.9363 359.075 50.3291L359.042 50.2832L359.008 50.2373L358.362 49.3838C351.639 40.6074 343.212 33.2735 333.583 27.8252C323.683 22.2235 312.729 18.7375 301.414 17.5859C298.214 17.1329 292.441 16.989 287.107 17.0205C281.614 17.053 275.699 17.2775 272.392 17.7285L272.337 17.7363L272.282 17.7451C261.685 19.3755 252.946 21.8723 244.529 26.1504C221.352 37.8841 208.204 59.9317 203.062 91.4375C202.583 94.3092 202.39 96.4051 202.261 106.459C202.131 116.549 202.065 135.042 201.936 170.945L201.547 277.685V304.166H191.163L191.041 205.46C191.041 147.611 191.042 120.89 190.748 107.166C190.601 100.311 190.378 96.4596 190.006 93.4961C189.644 90.6143 189.104 88.4476 188.597 85.8643C185.408 67.0227 176.245 49.7043 162.46 36.4668L162.353 36.3623L162.239 36.2637L161.152 35.332C149.882 25.8571 136.536 20.5466 119.651 17.8945H119.652C119.633 17.8912 119.613 17.8881 119.594 17.8848C119.577 17.8821 119.56 17.8796 119.543 17.877H119.542C115.927 17.2657 109.556 17.0205 103.675 17.0205C97.7762 17.0205 91.3798 17.2667 87.7197 17.875C68.4765 20.6365 53.3211 27.6347 41.6328 39.7559L41.5264 39.8662L41.4248 39.9824C27.2269 56.1819 18.9011 76.6904 17.7871 98.1982C17.7079 98.9724 17.6679 100.034 17.6367 101.069C17.5944 102.473 17.5571 104.374 17.5234 106.764C17.4561 111.549 17.4038 118.392 17.3633 127.33C17.2822 145.212 17.249 171.552 17.249 206.765V304.166H6.49219L6.61426 204.568C6.67912 155.791 6.71146 129.163 6.80859 114.188C6.90735 98.963 7.08291 96.2033 7.31934 94.6426L7.34766 94.4541L7.36523 94.2646C9.2724 73.53 17.0614 53.7726 29.8135 37.3145C37.25 28.4833 46.3959 21.2468 56.7021 16.042C67.043 10.8198 78.3367 7.75106 89.8984 7.02148L89.9434 7.01855L89.9883 7.01465Z" fill="#D9E0ED" stroke="#D9E0ED" stroke-width="12.9695"/>
</svg>
